<?xml version="1.0" standalone="no"?>
<!DOCTYPE svg PUBLIC "-//W3C//DTD SVG 20010904//EN"
 "http://www.w3.org/TR/2001/REC-SVG-20010904/DTD/svg10.dtd">
<svg version="1.0" xmlns="http://www.w3.org/2000/svg"
 width="300.000000pt" height="300.000000pt" viewBox="0 0 300.000000 300.000000"
 preserveAspectRatio="xMidYMid meet">
<metadata>
Created by potrace 1.10, written by Peter Selinger 2001-2011
</metadata>
<g transform="translate(0.000000,300.000000) scale(0.100000,-0.100000)"
fill="#000000" stroke="none">
<path d="M1048 2021 l-33 -29 -3 -236 c-3 -198 -1 -240 13 -265 24 -48 61 -61
170 -61 l95 0 0 34 c0 19 3 41 6 50 5 14 -7 16 -95 16 -83 0 -101 3 -101 15 0
12 19 15 113 15 101 0 116 2 132 20 10 11 27 23 39 27 16 6 10 9 -27 13 -48 5
-65 22 -27 28 15 3 20 9 16 19 -10 24 13 43 51 43 l34 0 -21 28 c-11 15 -21
45 -23 67 -2 37 0 40 23 37 14 -2 39 -12 56 -22 30 -17 32 -17 60 0 87 54 106
13 46 -102 -2 -5 12 -8 31 -8 51 0 67 -51 22 -72 -32 -15 -31 -19 9 -45 42
-27 81 -103 72 -139 l-7 -26 91 3 c89 4 93 5 121 37 l29 32 0 241 0 241 -34
34 -34 34 -396 0 -396 0 -32 -29z m824 -10 c17 -6 30 -21 35 -38 4 -15 8 -126
8 -246 l0 -219 -28 -24 c-22 -19 -40 -24 -81 -24 -58 0 -71 6 -55 27 8 9 23
11 43 7 45 -8 86 26 86 72 0 49 -30 75 -84 73 -23 -2 -48 1 -54 5 -7 4 -26 0
-44 -8 -37 -19 -57 -21 -40 -4 20 20 14 63 -12 87 -21 20 -24 30 -19 66 3 25
0 52 -7 65 -15 29 2 43 45 35 17 -2 36 -1 44 4 9 6 21 5 32 -2 14 -9 21 -9 30
0 8 8 20 8 40 1 33 -11 59 2 59 31 0 23 -37 44 -57 32 -11 -5 -25 -5 -40 2
-16 7 -26 7 -36 -1 -7 -6 -19 -7 -26 -3 -20 13 -122 5 -132 -10 -12 -19 -11
-36 1 -44 17 -11 11 -22 -17 -34 -47 -19 -73 -21 -113 -7 -30 10 -44 11 -62 2
-19 -10 -23 -20 -23 -62 0 -45 -5 -56 -39 -94 -34 -38 -40 -41 -62 -31 -41 18
-138 14 -165 -8 -21 -17 -22 -21 -10 -44 10 -19 10 -29 1 -46 -26 -49 4 -71
96 -71 35 0 54 -5 57 -14 3 -8 3 -17 0 -20 -10 -10 -123 -7 -123 4 0 5 -6 7
-14 4 -19 -7 -59 33 -52 52 3 8 1 14 -4 14 -6 0 -9 82 -7 215 3 208 4 216 25
238 22 21 30 22 295 27 349 6 475 4 509 -9z m-244 -94 c2 -12 -3 -17 -17 -17
-15 0 -21 6 -21 21 0 25 33 22 38 -4z m76 8 c3 -9 -1 -18 -10 -22 -19 -7 -39
11 -30 26 10 16 33 13 40 -4z m71 -5 c0 -8 -8 -16 -17 -18 -13 -2 -18 3 -18
18 0 15 5 20 18 18 9 -2 17 -10 17 -18z m75 0 c0 -13 -7 -20 -20 -20 -19 0
-27 20 -13 33 13 14 33 6 33 -13z m-590 -285 c0 -12 -16 -15 -80 -15 -64 0
-80 3 -80 15 0 12 16 15 80 15 64 0 80 -3 80 -15z m500 -21 c0 -3 -5 -15 -11
-26 -8 -15 -8 -27 0 -44 14 -31 -2 -41 -34 -20 -33 22 -41 53 -19 77 15 17 64
27 64 13z m84 -10 c20 -19 21 -58 2 -73 -25 -21 -69 -9 -80 21 -17 50 42 89
78 52z"/>
<path d="M1140 1911 c-44 -8 -62 -40 -57 -104 6 -68 26 -84 112 -86 92 -2 115
18 115 99 0 45 -4 61 -21 75 -21 20 -84 26 -149 16z m20 -41 c0 -16 -7 -20
-30 -20 -28 0 -30 2 -20 20 6 11 20 20 30 20 13 0 20 -7 20 -20z m118 8 c20
-20 14 -28 -24 -28 -19 0 -33 -4 -30 -8 3 -5 19 -7 36 -4 25 4 30 1 30 -17 0
-17 -6 -21 -36 -21 -33 0 -36 -2 -32 -25 5 -22 2 -25 -23 -25 l-29 0 0 70 0
70 48 0 c26 0 53 -5 60 -12z m-123 -58 c0 -18 -33 -26 -47 -12 -6 6 -7 15 -3
22 10 16 50 8 50 -10z m5 -50 c0 -13 -7 -20 -20 -20 -10 0 -24 9 -30 20 -10
18 -8 20 20 20 23 0 30 -4 30 -20z m130 12 c0 -12 -23 -32 -37 -32 -7 0 -13 9
-13 20 0 15 7 20 25 20 14 0 25 -4 25 -8z"/>
<path d="M1415 1788 c10 -32 34 -68 45 -68 14 0 13 7 -7 37 -11 17 -13 24 -5
19 8 -4 22 -22 32 -39 l19 -31 9 25 c11 27 42 58 42 41 0 -5 -7 -15 -15 -22
-8 -7 -15 -19 -15 -27 0 -21 26 1 46 38 28 54 6 67 -43 25 l-28 -24 -28 24
c-37 31 -61 32 -52 2z"/>
<path d="M1377 1683 c-11 -11 -8 -23 6 -23 20 0 50 -37 42 -50 -4 -6 -25 -22
-47 -36 -86 -55 -84 -161 6 -219 25 -17 26 -20 12 -30 -9 -7 -16 -15 -16 -19
0 -3 52 -6 115 -6 63 0 115 3 115 6 0 4 -7 12 -16 19 -15 10 -12 14 18 32 35
21 68 75 68 111 0 40 -20 73 -65 104 -51 36 -57 66 -17 83 12 5 22 15 22 22 0
10 -30 13 -118 13 -65 0 -122 -3 -125 -7z m177 -38 c-4 -11 -21 -15 -59 -15
-38 0 -55 4 -59 15 -4 12 6 15 59 15 53 0 63 -3 59 -15z m9 -60 l18 -25 -81 0
c-44 0 -80 3 -80 7 0 23 37 43 79 43 37 -1 49 -5 64 -25z m-120 -45 c38 -6 77
-6 114 1 39 7 59 7 66 0 16 -16 6 -21 -66 -33 -46 -8 -82 -7 -127 0 -69 13
-75 16 -65 31 8 13 6 13 78 1z m52 -60 c34 0 83 6 109 14 41 13 48 13 53 0 3
-9 2 -19 -3 -23 -17 -15 -102 -31 -161 -30 -64 1 -155 20 -154 32 1 4 1 13 1
21 0 12 7 12 47 0 25 -8 74 -14 108 -14z m-25 -58 c53 -2 113 1 135 7 21 6 41
8 44 5 3 -4 -15 -25 -41 -48 -27 -23 -48 -47 -48 -54 0 -8 -21 -12 -65 -12
-55 0 -65 3 -65 18 -1 9 -15 26 -32 37 -17 11 -38 31 -47 45 -15 23 -15 24 4
16 11 -5 63 -11 115 -14z"/>
<path d="M646 1139 c-34 -27 -32 -64 6 -92 23 -17 31 -19 53 -9 34 16 32 33
-3 26 -34 -7 -57 15 -47 47 6 18 12 20 41 16 37 -6 45 6 15 23 -27 14 -35 13
-65 -11z"/>
<path d="M990 1141 c0 -14 -5 -18 -20 -14 -28 7 -50 -14 -50 -48 0 -34 23 -48
68 -42 32 5 32 5 32 64 0 46 -3 59 -15 59 -8 0 -15 -9 -15 -19z m0 -57 c0 -20
-30 -30 -40 -13 -11 17 7 40 26 32 8 -3 14 -12 14 -19z"/>
<path d="M1090 1095 c0 -51 3 -65 15 -65 8 0 15 9 15 20 0 14 7 20 23 20 29 0
47 18 47 46 0 28 -11 35 -61 40 l-39 4 0 -65z m73 29 c11 -11 -5 -34 -24 -34
-12 0 -19 7 -19 20 0 19 28 28 43 14z"/>
<path d="M2160 1100 c0 -56 2 -60 23 -60 12 0 32 -3 45 -6 16 -5 22 -2 22 10
0 11 -9 16 -30 16 -29 0 -30 1 -30 50 0 38 -4 50 -15 50 -12 0 -15 -13 -15
-60z"/>
<path d="M2269 1156 c-9 -9 6 -121 16 -116 5 3 9 10 7 17 -5 24 20 24 39 -1
19 -24 49 -36 49 -19 0 4 -12 20 -27 35 l-27 28 29 30 c25 26 26 30 10 30 -10
0 -31 -15 -46 -32 l-28 -33 -1 33 c0 29 -9 40 -21 28z"/>
<path d="M1673 1130 c-8 -12 -9 -21 -3 -25 6 -3 10 -19 10 -35 0 -27 22 -46
41 -34 14 8 11 24 -6 24 -20 0 -19 36 0 44 13 5 13 9 3 26 -16 25 -30 25 -45
0z"/>
<path d="M757 1123 c-14 -13 -6 -24 12 -18 11 3 22 1 26 -5 3 -5 -2 -10 -13
-10 -11 0 -26 -7 -33 -16 -11 -14 -11 -18 3 -28 10 -7 31 -11 48 -8 26 4 30 8
30 36 0 18 -5 37 -12 44 -13 13 -50 16 -61 5z"/>
<path d="M850 1085 c0 -29 5 -45 15 -49 12 -4 15 3 15 29 0 24 5 35 15 35 30
0 15 27 -15 28 -29 1 -30 -1 -30 -43z"/>
<path d="M1210 1078 c0 -55 22 -64 28 -12 2 16 10 33 18 37 23 13 16 24 -16
24 -29 0 -30 -2 -30 -49z"/>
<path d="M1285 1106 c-13 -19 -14 -29 -6 -45 25 -45 91 -33 91 17 0 54 -56 72
-85 28z m61 -35 c-9 -14 -33 -14 -41 -1 -4 6 -1 18 6 26 11 13 14 13 27 0 8
-8 11 -19 8 -25z"/>
<path d="M1390 1078 c0 -37 3 -46 14 -42 8 3 16 20 18 37 4 44 22 40 26 -5 4
-51 32 -53 32 -2 0 28 4 35 17 32 12 -2 17 -13 18 -32 0 -16 6 -31 13 -33 8
-3 12 8 12 36 0 22 -6 43 -12 48 -7 4 -41 8 -75 9 l-63 0 0 -48z"/>
<path d="M1578 1119 c-45 -26 5 -104 50 -80 28 15 35 40 17 67 -16 26 -39 30
-67 13z m47 -35 c0 -10 -8 -20 -17 -22 -18 -3 -26 27 -11 42 12 11 28 0 28
-20z"/>
<path d="M1750 1087 c0 -43 6 -60 19 -53 10 6 0 96 -10 96 -5 0 -9 -19 -9 -43z"/>
<path d="M1806 1114 c-23 -23 -20 -51 9 -70 23 -15 27 -15 50 0 14 9 25 25 25
36 0 24 -26 50 -50 50 -10 0 -26 -7 -34 -16z m52 -32 c3 -17 -2 -22 -17 -22
-14 0 -21 6 -21 18 0 38 33 41 38 4z"/>
<path d="M1910 1078 c0 -35 4 -48 13 -45 6 2 11 15 9 29 -3 28 24 60 32 37 3
-8 6 -24 8 -37 5 -35 23 -31 26 6 4 44 -12 62 -54 60 -34 -1 -34 -1 -34 -50z"/>
<path d="M2027 1123 c-16 -15 -5 -42 21 -51 l27 -10 -27 -1 c-30 -1 -37 -15
-13 -25 17 -6 47 3 57 18 9 14 -10 36 -33 36 -11 0 -19 5 -19 11 0 7 10 9 25
5 18 -5 25 -2 25 9 0 15 -50 22 -63 8z"/>
<path d="M870 947 c0 -13 6 -32 14 -43 12 -15 18 -17 33 -8 20 12 31 74 14 74
-6 0 -11 -13 -11 -30 0 -20 -5 -30 -15 -30 -10 0 -15 10 -15 30 0 17 -4 30
-10 30 -5 0 -10 -10 -10 -23z"/>
<path d="M1160 935 c0 -19 5 -35 10 -35 6 0 10 6 10 13 1 7 6 5 14 -5 7 -10
17 -18 21 -18 4 0 2 7 -5 15 -7 8 -9 22 -6 31 5 14 4 15 -9 4 -13 -10 -15 -9
-15 9 0 11 -4 21 -10 21 -5 0 -10 -16 -10 -35z"/>
<path d="M1257 963 c-13 -13 -7 -30 16 -41 21 -10 21 -11 -8 -12 -24 0 -27 -2
-13 -10 20 -12 48 -3 48 15 0 8 -9 17 -20 20 -11 4 -18 10 -15 15 3 5 13 6 22
3 11 -4 14 -3 9 5 -8 13 -29 16 -39 5z"/>
<path d="M1680 930 c0 -38 2 -40 31 -40 17 0 28 4 24 10 -3 6 -13 10 -21 10
-8 0 -14 5 -14 11 0 5 4 8 9 4 5 -3 12 -1 16 5 3 5 -1 10 -9 10 -22 0 -20 17
2 23 10 3 6 5 -10 6 -26 1 -28 -2 -28 -39z"/>
<path d="M1988 960 c-1 -5 -14 -11 -27 -13 -14 -2 -27 -9 -29 -15 -5 -17 -22
-15 -22 3 0 9 -9 15 -25 15 -22 0 -25 -4 -24 -32 1 -30 2 -30 8 -9 9 32 28 38
36 10 5 -14 2 -25 -6 -30 -7 -4 -10 -11 -7 -14 11 -11 28 4 42 38 12 26 15 28
15 11 1 -24 23 -37 46 -28 9 4 15 19 15 40 0 31 -14 47 -22 24z"/>
<path d="M950 918 c0 -17 3 -28 7 -24 4 4 8 15 8 23 0 9 6 18 13 20 7 3 12 -4
12 -16 0 -12 5 -21 10 -21 11 0 13 11 4 34 -3 9 -17 16 -30 16 -20 0 -24 -5
-24 -32z"/>
<path d="M1043 934 c-3 -8 1 -23 10 -31 13 -13 19 -14 31 -3 13 10 19 10 31 0
12 -10 19 -10 27 -2 9 9 8 12 -3 12 -9 0 -24 9 -34 20 -22 24 -53 26 -62 4z"/>
<path d="M1323 943 c17 -4 17 -5 1 -17 -19 -14 -12 -36 12 -36 9 0 14 11 14
30 0 25 -4 30 -22 29 -19 -1 -19 -2 -5 -6z"/>
<path d="M1361 945 c0 -5 6 -21 13 -34 13 -24 14 -24 25 -3 14 27 14 54 0 29
-10 -18 -11 -18 -25 0 -7 10 -13 14 -13 8z"/>
<path d="M1451 918 c2 -30 2 -31 6 -5 5 34 30 36 36 2 4 -23 4 -23 3 2 -1 21
-7 29 -23 31 -20 3 -23 -1 -22 -30z"/>
<path d="M1513 934 c-7 -18 4 -30 32 -37 14 -3 11 -5 -10 -6 -26 -1 -28 -3
-12 -12 25 -15 47 5 47 42 0 24 -4 29 -25 29 -14 0 -28 -7 -32 -16z"/>
<path d="M1580 935 c0 -8 6 -15 13 -15 9 0 8 -3 -2 -9 -10 -6 -10 -10 -1 -16
6 -4 17 -2 23 5 9 9 8 15 -6 25 -18 13 -18 13 0 18 14 4 14 5 -4 6 -14 1 -23
-5 -23 -14z"/>
<path d="M1741 945 c0 -5 6 -21 13 -34 13 -24 14 -24 25 -3 14 27 14 54 0 29
-10 -18 -11 -18 -25 0 -7 10 -13 14 -13 8z"/>
<path d="M1807 944 c-21 -21 1 -63 25 -48 8 5 6 10 -8 15 -17 7 -17 8 4 8 14
1 22 6 20 14 -5 14 -31 21 -41 11z"/>
<path d="M2033 943 c18 -5 18 -5 0 -18 -14 -10 -15 -16 -6 -25 16 -17 33 -4
33 26 0 19 -5 24 -22 23 -19 -1 -19 -2 -5 -6z"/>
<path d="M2074 938 c3 -10 9 -25 12 -33 3 -8 1 -15 -5 -15 -6 0 -11 -4 -11
-10 0 -23 21 -7 40 30 11 22 16 40 11 40 -5 0 -12 -7 -15 -17 -6 -14 -8 -14
-22 3 -14 16 -15 17 -10 2z"/>
</g>
</svg>
